<svg id="Layer_1" data-name="Layer 1" xmlns="http://www.w3.org/2000/svg" xmlns:xlink="http://www.w3.org/1999/xlink" viewBox="0 0 383.83 683.1"><defs><style>.cls-1{fill:#009cd9;}.cls-2{font-size:27.85px;fill:#6d6e71;}.cls-16,.cls-2{font-family:ProzaLibre-SemiBold, Proza Libre;font-weight:600;}.cls-3{fill:url(#linear-gradient);}.cls-10,.cls-11,.cls-12,.cls-13,.cls-14,.cls-4,.cls-5,.cls-6,.cls-7,.cls-8,.cls-9{fill:#2596a8;}.cls-4{opacity:0.15;}.cls-5{opacity:0.2;}.cls-6{opacity:0.3;}.cls-7{opacity:0.1;}.cls-8{opacity:0.4;}.cls-10{opacity:0.05;}.cls-11{opacity:0.55;}.cls-12{opacity:0.35;}.cls-13{opacity:0.6;}.cls-14{opacity:0.7;}.cls-15,.cls-16{fill:#fff;}.cls-16{font-size:32.58px;}</style><linearGradient id="linear-gradient" y1="341.55" x2="383.83" y2="341.55" gradientUnits="userSpaceOnUse"><stop offset="0" stop-color="#32c1d5"/><stop offset="1" stop-color="#5c65ae"/></linearGradient></defs><title>page2</title><path class="cls-1" d="M323.38,135.85a34.39,34.39,0,0,0-7-10.71,29.73,29.73,0,0,0-2.23-2.12,35.51,35.51,0,0,0-6.69-4.58l-.72-.38-.37-.18-.37-.18-.74-.34c-.46-.21-.93-.4-1.41-.59l-.84-.32h0c-.26-.09-.51-.19-.77-.27s-.5-.17-.75-.25a34.21,34.21,0,0,0-3.42-.86l-.53-.1-.58-.11h-.06l-.4-.06-1-.15-.88-.1-.89-.08-.49,0-.51,0-.82,0h-1.7l-.95,0a35.49,35.49,0,0,0-6.41.91,35.86,35.86,0,0,0-8.34,3.1c-1.07.56-2.08,1.16-3.06,1.8-.38.25-.74.5-1.1.76l-.84.63-.22.17-.29.24-.42.34-.06.06-.48.4h0l-.58.52,0,0-.14.13-.17.16-.08.07,0,0,0,0a.13.13,0,0,0-.07.06h0s0,0,0,0l0,0-.36.35-.12.12-.08.07-.78.79-.05,0-.14.15-.63.69a2,2,0,0,0-.19.22l-.13.15h0a.53.53,0,0,0-.1.12s-.06.05-.07.08l-.06.06h0l-.06.06s0,0,0,0l-.06.06a4.14,4.14,0,0,0-.39.46c-.24.28-.46.57-.68.86s-.44.58-.65.88-.4.55-.58.83l-.13.2c-.18.25-.34.52-.51.78s-.35.59-.51.88l-.15.25-.31.55c-.05.09-.09.19-.14.28l-.47.91c-.12.24-.23.48-.36.73h0l-.11.26c-.16.34-.31.69-.46,1a33.48,33.48,0,0,0-1.51,4.39,2.49,2.49,0,0,0-.09.37c0,.13-.06.26-.09.37a4.31,4.31,0,0,0-.11.49c0,.17-.07.33-.11.5-.08.36-.14.73-.2,1.09a36,36,0,0,0-.51,4.77,38.67,38.67,0,0,0,.39,6.17,30.81,30.81,0,0,0,4.32,12.24c1.31,2.18,2.82,4.26,4.23,6.4q3.65,5.5,7.27,11l.33-.75.07-.15,7.91-18.23.14-.33c-5.35-5.58-10.09-8.53-10.09-17.07,0-.52,0-1,0-1.52v-.06a20.37,20.37,0,0,1,16.26-18.28,20.85,20.85,0,0,1,4.2-.43,20.52,20.52,0,0,1,20.52,20.29,20.17,20.17,0,0,1-9.28,17l7.38,18.57.05.11.36.89.74-1.11.15-.24L311,182l.31-.48,1.74-2.63,1.66-2.54L318,171.3c.57-.85,1.12-1.69,1.68-2.54.24-.35.48-.71.71-1.08l.68-1.09.06-.11h0s0,0,0-.07c.11-.19.23-.38.34-.58a1.09,1.09,0,0,1,.08-.15l0-.07s.05-.08.07-.13c.2-.37.41-.75.6-1.13l.46-.91c.29-.63.57-1.26.82-1.9.15-.37.29-.74.42-1.12s.26-.74.38-1.12.23-.75.34-1.13.2-.76.3-1.14c.24-1,.44-2.05.59-3.09l.09-.74c0-.11,0-.22,0-.33a1.79,1.79,0,0,0,0-.23c0-.35.07-.72.1-1.07v0c0-.36,0-.73.05-1.1a1.69,1.69,0,0,0,0-.23c0-.14,0-.28,0-.43s0-.43,0-.64v-.27A32.64,32.64,0,0,0,323.38,135.85Z" transform="translate(-100.88 -79.4)"/><path class="cls-1" d="M326,148.87a33.23,33.23,0,0,1-2.36,12.66,37.22,37.22,0,0,1-3.91,7.24c-2.25,3.37-4.43,6.78-6.66,10.16l-1.73,2.63-.64,1-.73,1.11-.36-.89-.2-.51a34.08,34.08,0,0,0,10-24.19,34.61,34.61,0,0,0-34.81-34.41,35,35,0,0,0-25.67,11.16,33.6,33.6,0,0,1,4.6-7.41,36.31,36.31,0,0,1,7.85-7.16q1.47-1,3.06-1.8a36,36,0,0,1,8.34-3.1,35.49,35.49,0,0,1,6.41-.91,34.45,34.45,0,0,1,8.32.56l.53.1a34.21,34.21,0,0,1,3.42.86,34.6,34.6,0,0,1,6,2.51,35,35,0,0,1,6.69,4.58,28,28,0,0,1,2.23,2.13,34.12,34.12,0,0,1,7,10.7A32.64,32.64,0,0,1,326,148.87Z" transform="translate(-100.88 -79.4)"/><polygon class="cls-1" points="204.32 109.97 190.26 132.13 175.52 109.97 189.92 118.6 204.32 109.97"/><path class="cls-1" d="M297.42,136.05c-.26-.15-.51-.29-.77-.42h0a7.34,7.34,0,0,0-.86-.39,13.33,13.33,0,0,0-1.78-.61h-.08a5.43,5.43,0,0,0-.58-.13,13.38,13.38,0,0,0-5.25,0,5.61,5.61,0,0,0-.59.13h-.07a14,14,0,0,0-1.79.61,7.2,7.2,0,0,0-.85.39h0c-.26.13-.51.27-.76.42a12.93,12.93,0,0,0-6.45,11.18,13.17,13.17,0,0,0,26.33,0A13,13,0,0,0,297.42,136.05Zm-7.76,1.12v9.31h-9.09A9.83,9.83,0,0,1,289.66,137.17Zm0,20.12a9.78,9.78,0,0,1-9.09-9.17h9.09Zm1.81-20.24a10.07,10.07,0,0,1,9.35,9.43h-9.35Zm0,20.35v-9.28h9.35A10,10,0,0,1,291.48,157.4Z" transform="translate(-100.88 -79.4)"/><text class="cls-2" transform="translate(121.6 167.24) scale(0.88 1)">HomeZone</text><rect class="cls-3" width="383.83" height="683.1"/><polygon class="cls-4" points="230.78 451.33 242.39 444.63 230.78 437.93 230.78 451.33"/><polygon class="cls-5" points="203.8 444.63 218.11 452.89 218.11 436.37 203.8 444.63"/><polygon class="cls-5" points="197.51 435.15 213.05 426.18 197.51 417.2 197.51 435.15"/><polygon class="cls-5" points="205.52 407.72 217.25 414.49 217.25 400.95 205.52 407.72"/><polygon class="cls-4" points="231.79 412.68 240.38 407.72 231.79 402.76 231.79 412.68"/><polygon class="cls-4" points="238.71 426.18 248.61 431.89 248.61 420.46 238.71 426.18"/><polygon class="cls-4" points="237.93 463.08 249 469.48 249 456.69 237.93 463.08"/><polygon class="cls-5" points="197.46 472.14 213.14 463.08 197.46 454.03 197.46 472.14"/><polygon class="cls-6" points="168.54 426.17 187.79 437.29 187.79 415.06 168.54 426.17"/><polygon class="cls-5" points="199 395.65 210.06 389.26 199 382.87 199 395.65"/><polygon class="cls-4" points="242.11 389.26 246.91 392.03 246.91 386.5 242.11 389.26"/><polygon class="cls-7" points="263.78 431.08 272.29 426.18 263.78 421.27 263.78 431.08"/><polygon class="cls-4" points="230.74 488.31 242.47 481.54 230.74 474.77 230.74 488.31"/><polygon class="cls-5" points="204.35 481.54 217.84 489.33 217.84 473.75 204.35 481.54"/><polygon class="cls-6" points="168.74 463.08 187.7 474.03 187.7 452.14 168.74 463.08"/><polygon class="cls-6" points="163.61 456.95 184.95 444.63 163.61 432.3 163.61 456.95"/><polygon class="cls-6" points="164.21 418.99 183.74 407.72 164.21 396.45 164.21 418.99"/><polygon class="cls-6" points="171.53 389.26 186.3 397.79 186.3 380.74 171.53 389.26"/><polygon class="cls-5" points="209.02 370.81 215.51 374.56 215.51 367.06 209.02 370.81"/><polygon class="cls-4" points="233.49 372.83 236.98 370.81 233.49 368.79 233.49 372.83"/><polygon class="cls-7" points="265.45 391.28 268.95 389.26 265.45 387.24 265.45 391.28"/><polygon class="cls-7" points="273.35 407.72 279.24 411.12 279.24 404.32 273.35 407.72"/><polygon class="cls-7" points="271.64 444.63 280.09 449.51 280.09 439.75 271.64 444.63"/><polygon class="cls-7" points="263.41 468.65 273.04 463.08 263.41 457.53 263.41 468.65"/><polygon class="cls-7" points="264.05 504.45 271.76 500 264.05 495.54 264.05 504.45"/><polygon class="cls-4" points="239.04 500 248.44 505.43 248.44 494.56 239.04 500"/><polygon class="cls-5" points="198.6 507.06 210.85 500 198.6 492.93 198.6 507.06"/><polygon class="cls-6" points="171.45 500 186.34 508.6 186.34 491.4 171.45 500"/><polygon class="cls-6" points="164.36 492.56 183.44 481.54 164.36 470.53 164.36 492.56"/><polygon class="cls-8" points="133.35 444.63 157.44 458.54 157.44 430.72 133.35 444.63"/><polygon class="cls-8" points="130.5 440.47 155.26 426.17 130.5 411.88 130.5 440.47"/><polygon class="cls-8" points="134.48 407.72 156.88 420.65 156.88 394.79 134.48 407.72"/><polygon class="cls-6" points="166.44 378.23 179.29 370.81 166.44 363.38 166.44 378.23"/><polygon class="cls-6" points="176.3 352.35 183.92 356.75 183.92 347.96 176.3 352.35"/><polygon class="cls-5" points="200.98 355.31 206.1 352.35 200.98 349.4 200.98 355.31"/><polygon class="cls-9" points="276.67 370.81 277.57 371.33 277.57 370.29 276.67 370.81"/><polygon class="cls-10" points="296.84 410.74 302.07 407.72 296.84 404.7 296.84 410.74"/><polygon class="cls-10" points="305.01 426.18 311.36 429.84 311.36 422.51 305.01 426.18"/><polygon class="cls-10" points="296.35 448.49 303.05 444.63 296.35 440.76 296.35 448.49"/><polygon class="cls-7" points="272.01 481.54 279.9 486.09 279.9 476.99 272.01 481.54"/><polygon class="cls-7" points="274.41 518.45 278.71 520.93 278.71 515.97 274.41 518.45"/><polygon class="cls-4" points="232.19 522.71 239.57 518.45 232.19 514.19 232.19 522.71"/><polygon class="cls-5" points="207.71 518.45 216.16 523.33 216.16 513.57 207.71 518.45"/><polygon class="cls-6" points="166.25 526.2 179.67 518.45 166.25 510.7 166.25 526.2"/><polygon class="cls-8" points="134.7 481.54 156.77 494.28 156.77 468.8 134.7 481.54"/><polygon class="cls-8" points="130.52 477.35 155.22 463.08 130.52 448.83 130.52 477.35"/><polygon class="cls-11" points="100.3 426.17 126.02 441.02 126.02 411.33 100.3 426.17"/><polygon class="cls-8" points="132.15 400.71 151.97 389.26 132.15 377.82 132.15 400.71"/><polygon class="cls-8" points="139.47 370.81 154.38 379.42 154.38 362.19 139.47 370.81"/><polygon class="cls-6" points="169.06 336.77 174.04 333.9 169.06 331.03 169.06 336.77"/><polygon class="cls-12" points="211.89 333.9 214.07 335.16 214.07 332.64 211.89 333.9"/><polygon class="cls-7" points="298.37 371.17 299 370.81 298.37 370.45 298.37 371.17"/><polygon class="cls-10" points="305.92 463.08 310.9 465.96 310.9 460.21 305.92 463.08"/><polygon class="cls-10" points="296.98 484.32 301.79 481.54 296.98 478.76 296.98 484.32"/><polygon class="cls-7" points="265.75 538.4 268.34 536.91 265.75 535.41 265.75 538.4"/><polygon class="cls-4" points="242.9 536.91 246.51 538.99 246.51 534.82 242.9 536.91"/><polygon class="cls-5" points="200.78 540.21 206.5 536.91 200.78 533.61 200.78 540.21"/><polygon class="cls-6" points="175.95 536.91 184.09 541.61 184.09 532.21 175.95 536.91"/><polygon class="cls-8" points="137.78 518.45 155.22 528.52 155.22 508.38 137.78 518.45"/><polygon class="cls-8" points="131.45 512.65 153.37 500 131.45 487.34 131.45 512.65"/><polygon class="cls-11" points="100.11 463.08 126.11 478.09 126.11 448.08 100.11 463.08"/><polygon class="cls-11" points="98.02 459.81 124.32 444.63 98.02 429.45 98.02 459.81"/><polygon class="cls-11" points="98.42 422.22 123.53 407.72 98.42 393.22 98.42 422.22"/><polygon class="cls-11" points="103.35 389.26 124.49 401.47 124.49 377.06 103.35 389.26"/><polygon class="cls-8" points="135.18 358.54 145.9 352.35 135.18 346.16 135.18 358.54"/><polygon class="cls-8" points="145.51 333.9 151.36 337.27 151.36 330.52 145.51 333.9"/><polygon class="cls-8" points="179.73 315.44 182.2 316.87 182.2 314.01 179.73 315.44"/><polygon class="cls-12" points="202.15 316.38 203.77 315.44 202.15 314.51 202.15 316.38"/><polygon class="cls-10" points="307.97 500 309.88 501.1 309.88 498.9 307.97 500"/><polygon class="cls-10" points="298.01 519.45 299.74 518.45 298.01 517.45 298.01 519.45"/><polygon class="cls-4" points="234.24 556.07 235.47 555.36 234.24 554.66 234.24 556.07"/><polygon class="cls-12" points="211.96 555.36 214.03 556.56 214.03 554.16 211.96 555.36"/><polygon class="cls-6" points="168.46 559.28 175.25 555.36 168.46 551.44 168.46 559.28"/><polygon class="cls-8" points="142.31 555.36 152.96 561.52 152.96 549.21 142.31 555.36"/><polygon class="cls-8" points="133.34 546.3 149.6 536.91 133.34 527.52 133.34 546.3"/><polygon class="cls-11" points="100.81 500 125.77 514.4 125.77 485.59 100.81 500"/><polygon class="cls-11" points="98.08 496.62 124.2 481.54 98.08 466.46 98.08 496.62"/><polygon class="cls-13" points="67.87 444.63 94.29 459.88 94.29 429.37 67.87 444.63"/><polygon class="cls-13" points="65.93 441.59 92.62 426.17 65.93 410.76 65.93 441.59"/><polygon class="cls-13" points="68.34 407.72 94.05 422.56 94.05 392.87 68.34 407.72"/><polygon class="cls-11" points="100.81 381.16 118.75 370.81 100.81 360.45 100.81 381.16"/><polygon class="cls-11" points="109.28 352.35 121.53 359.42 121.53 345.28 109.28 352.35"/><polygon class="cls-8" points="137.26 318.04 141.75 315.44 137.26 312.85 137.26 318.04"/><polygon class="cls-8" points="146.92 296.99 150.66 299.15 150.66 294.83 146.92 296.99"/><polygon class="cls-6" points="170 298.25 172.18 296.99 170 295.73 170 298.25"/><polygon class="cls-12" points="212.98 296.99 213.52 297.3 213.52 296.68 212.98 296.99"/><polygon class="cls-5" points="202.45 574.23 203.16 573.82 202.45 573.41 202.45 574.23"/><polygon class="cls-8" points="179.5 573.82 182.31 575.44 182.31 572.19 179.5 573.82"/><polygon class="cls-8" points="135.76 579.01 144.75 573.82 135.76 568.62 135.76 579.01"/><polygon class="cls-11" points="103.63 536.91 124.35 548.87 124.35 524.94 103.63 536.91"/><polygon class="cls-11" points="98.36 533.06 123.66 518.45 98.36 503.85 98.36 533.06"/><polygon class="cls-13" points="67.66 481.54 94.39 496.97 94.39 466.11 67.66 481.54"/><polygon class="cls-13" points="65.89 478.57 92.7 463.08 65.89 447.6 65.89 478.57"/><polygon class="cls-14" points="35.44 426.17 62.55 441.82 62.55 410.52 35.44 426.17"/><polygon class="cls-13" points="66.99 402.84 90.5 389.26 66.99 375.69 66.99 402.84"/><polygon class="cls-13" points="72.49 370.81 91.98 382.06 91.98 359.56 72.49 370.81"/><polygon class="cls-11" points="103.95 338.81 112.46 333.9 103.95 328.99 103.95 338.81"/><polygon class="cls-11" points="113.62 315.44 119.36 318.75 119.36 312.13 113.62 315.44"/><polygon class="cls-6" points="170.01 593.5 172.14 592.27 170.01 591.04 170.01 593.5"/><polygon class="cls-8" points="146.48 592.27 150.88 594.82 150.88 589.73 146.48 592.27"/><polygon class="cls-11" points="109.33 573.82 121.5 580.85 121.5 566.79 109.33 573.82"/><polygon class="cls-11" points="100.5 566.25 119.36 555.36 100.5 544.48 100.5 566.25"/><polygon class="cls-13" points="67.27 518.45 94.58 534.22 94.58 502.68 67.27 518.45"/><polygon class="cls-13" points="65.59 515.98 93.28 500 65.59 484.01 65.59 515.98"/><polygon class="cls-14" points="35.72 463.08 62.41 478.5 62.41 447.67 35.72 463.08"/><polygon class="cls-14" points="33.9 460.15 60.78 444.63 33.9 429.11 33.9 460.15"/><polygon class="cls-14" points="33.77 423.46 61.03 407.72 33.77 391.98 33.77 423.46"/><polygon class="cls-14" points="37.07 389.26 61.73 403.5 61.73 375.03 37.07 389.26"/><polygon class="cls-13" points="69.36 361.82 85.76 352.35 69.36 342.88 69.36 361.82"/><polygon class="cls-13" points="78.39 333.9 89.03 340.03 89.03 327.76 78.39 333.9"/><polygon class="cls-11" points="104.49 300.98 111.4 296.99 104.49 293 104.49 300.98"/><polygon class="cls-8" points="137.82 612.34 140.62 610.73 137.82 609.12 137.82 612.34"/><polygon class="cls-11" points="114.7 610.73 118.82 613.1 118.82 608.36 114.7 610.73"/><polygon class="cls-11" points="103.89 597.3 112.6 592.27 103.89 587.25 103.89 597.3"/><polygon class="cls-13" points="71.37 555.36 92.53 567.58 92.53 543.14 71.37 555.36"/><polygon class="cls-13" points="66.2 551.84 92.07 536.91 66.2 521.97 66.2 551.84"/><polygon class="cls-14" points="35.3 500 62.62 515.77 62.62 484.22 35.3 500"/><polygon class="cls-14" points="34.06 496.78 60.46 481.54 34.06 466.3 34.06 496.78"/><polygon class="cls-9" points="3.4 444.63 30.62 460.35 30.62 428.91 3.4 444.63"/><polygon class="cls-9" points="2.08 442.43 30.23 426.17 2.08 409.92 2.08 442.43"/><polygon class="cls-9" points="2.08 403.96 30.23 387.71 2.08 371.46 2.08 403.96"/><polygon class="cls-9" points="2.92 407.72 30.86 423.85 30.86 391.58 2.92 407.72"/><polygon class="cls-14" points="35.38 383.76 57.82 370.81 35.38 357.85 35.38 383.76"/><polygon class="cls-14" points="41.53 352.35 59.51 362.73 59.51 341.98 41.53 352.35"/><polygon class="cls-13" points="71.89 320.53 80.7 315.44 71.89 310.35 71.89 320.53"/><polygon class="cls-13" points="80.21 296.99 88.11 301.55 88.11 292.42 80.21 296.99"/><polygon class="cls-11" points="106.29 630.05 107.79 629.19 106.29 628.32 106.29 630.05"/><polygon class="cls-13" points="79.15 592.27 88.65 597.75 88.65 586.79 79.15 592.27"/><polygon class="cls-13" points="69.54 582.97 85.39 573.82 69.54 564.66 69.54 582.97"/><polygon class="cls-14" points="36.42 536.91 62.06 551.72 62.06 522.1 36.42 536.91"/><polygon class="cls-14" points="33.88 534 60.81 518.45 33.88 502.91 33.88 534"/><polygon class="cls-9" points="4.42 481.54 30.11 496.37 30.11 466.71 4.42 481.54"/><polygon class="cls-9" points="2.08 478.47 28.72 463.08 2.08 447.7 2.08 478.47"/><polygon class="cls-9" points="6.19 370.81 29.23 384.11 29.23 357.51 6.19 370.81"/><polygon class="cls-14" points="38.34 341.73 51.9 333.9 38.34 326.07 38.34 341.73"/><polygon class="cls-14" points="47.2 315.44 56.68 320.91 56.68 309.97 47.2 315.44"/><polygon class="cls-13" points="84.6 629.19 85.92 629.95 85.92 628.42 84.6 629.19"/><polygon class="cls-13" points="73.25 613.46 77.97 610.73 73.25 608 73.25 613.46"/><polygon class="cls-14" points="42.79 573.82 58.87 583.1 58.87 564.53 42.79 573.82"/><polygon class="cls-14" points="35.72 567.72 57.13 555.36 35.72 543 35.72 567.72"/><polygon class="cls-9" points="4.8 518.45 29.92 532.96 29.92 503.95 4.8 518.45"/><polygon class="cls-9" points="2.63 514.32 27.43 500 2.63 485.67 2.63 514.32"/><polygon class="cls-9" points="12.43 333.9 26.11 341.79 26.11 326 12.43 333.9"/><polygon class="cls-14" points="40.63 300.86 47.33 296.99 40.63 293.12 40.63 300.86"/><polygon class="cls-14" points="50.51 610.73 55.02 613.33 55.02 608.13 50.51 610.73"/><polygon class="cls-14" points="39.73 597.7 49.12 592.27 39.73 586.85 39.73 597.7"/><polygon class="cls-9" points="8.71 555.36 27.97 566.48 27.97 544.25 8.71 555.36"/><polygon class="cls-9" points="8.06 320.35 16.56 315.44 8.06 310.54 8.06 320.35"/><polygon class="cls-9" points="18.09 296.99 23.28 299.99 23.28 293.99 18.09 296.99"/><polygon class="cls-14" points="42.66 629.53 43.25 629.18 42.66 628.84 42.66 629.53"/><polygon class="cls-9" points="16.09 592.27 24.28 597 24.28 587.54 16.09 592.27"/><polygon class="cls-9" points="6.63 581.2 19.41 573.82 6.63 566.44 6.63 581.2"/><polygon class="cls-9" points="9.83 612.56 13.01 610.73 9.83 608.89 9.83 612.56"/><polygon class="cls-4" points="230.78 451.33 242.39 444.63 230.78 437.93 230.78 451.33"/><polygon class="cls-5" points="203.8 444.63 218.11 452.89 218.11 436.37 203.8 444.63"/><polygon class="cls-5" points="197.51 435.15 213.05 426.18 197.51 417.2 197.51 435.15"/><polygon class="cls-5" points="205.52 407.72 217.25 414.49 217.25 400.95 205.52 407.72"/><polygon class="cls-4" points="231.79 412.68 240.38 407.72 231.79 402.76 231.79 412.68"/><polygon class="cls-4" points="238.71 426.18 248.61 431.89 248.61 420.46 238.71 426.18"/><polygon class="cls-4" points="237.93 463.08 249 469.48 249 456.69 237.93 463.08"/><polygon class="cls-5" points="197.46 472.14 213.14 463.08 197.46 454.03 197.46 472.14"/><polygon class="cls-6" points="168.54 426.17 187.79 437.29 187.79 415.06 168.54 426.17"/><polygon class="cls-5" points="199 395.65 210.06 389.26 199 382.87 199 395.65"/><polygon class="cls-4" points="242.11 389.26 246.91 392.03 246.91 386.5 242.11 389.26"/><polygon class="cls-7" points="263.78 431.08 272.29 426.18 263.78 421.27 263.78 431.08"/><polygon class="cls-4" points="230.74 488.31 242.47 481.54 230.74 474.77 230.74 488.31"/><polygon class="cls-5" points="204.35 481.54 217.84 489.33 217.84 473.75 204.35 481.54"/><polygon class="cls-6" points="168.74 463.08 187.7 474.03 187.7 452.14 168.74 463.08"/><polygon class="cls-6" points="163.61 456.95 184.95 444.63 163.61 432.3 163.61 456.95"/><polygon class="cls-6" points="164.21 418.99 183.74 407.72 164.21 396.45 164.21 418.99"/><polygon class="cls-6" points="171.53 389.26 186.3 397.79 186.3 380.74 171.53 389.26"/><polygon class="cls-5" points="209.02 370.81 215.51 374.56 215.51 367.06 209.02 370.81"/><polygon class="cls-4" points="233.49 372.83 236.98 370.81 233.49 368.79 233.49 372.83"/><polygon class="cls-7" points="265.45 391.28 268.95 389.26 265.45 387.24 265.45 391.28"/><polygon class="cls-7" points="273.35 407.72 279.24 411.12 279.24 404.32 273.35 407.72"/><polygon class="cls-7" points="271.64 444.63 280.09 449.51 280.09 439.75 271.64 444.63"/><polygon class="cls-7" points="263.41 468.65 273.04 463.08 263.41 457.53 263.41 468.65"/><polygon class="cls-7" points="264.05 504.45 271.76 500 264.05 495.54 264.05 504.45"/><polygon class="cls-4" points="239.04 500 248.44 505.43 248.44 494.56 239.04 500"/><polygon class="cls-5" points="198.6 507.06 210.85 500 198.6 492.93 198.6 507.06"/><polygon class="cls-6" points="171.45 500 186.34 508.6 186.34 491.4 171.45 500"/><polygon class="cls-6" points="164.36 492.56 183.44 481.54 164.36 470.53 164.36 492.56"/><polygon class="cls-8" points="133.35 444.63 157.44 458.54 157.44 430.72 133.35 444.63"/><polygon class="cls-8" points="130.5 440.47 155.26 426.17 130.5 411.88 130.5 440.47"/><polygon class="cls-8" points="134.48 407.72 156.88 420.65 156.88 394.79 134.48 407.72"/><polygon class="cls-6" points="166.44 378.23 179.29 370.81 166.44 363.38 166.44 378.23"/><polygon class="cls-6" points="176.3 352.35 183.92 356.75 183.92 347.96 176.3 352.35"/><polygon class="cls-5" points="200.98 355.31 206.1 352.35 200.98 349.4 200.98 355.31"/><polygon class="cls-9" points="276.67 370.81 277.57 371.33 277.57 370.29 276.67 370.81"/><polygon class="cls-10" points="296.84 410.74 302.07 407.72 296.84 404.7 296.84 410.74"/><polygon class="cls-10" points="305.01 426.18 311.36 429.84 311.36 422.51 305.01 426.18"/><polygon class="cls-10" points="296.35 448.49 303.05 444.63 296.35 440.76 296.35 448.49"/><polygon class="cls-7" points="272.01 481.54 279.9 486.09 279.9 476.99 272.01 481.54"/><polygon class="cls-7" points="274.41 518.45 278.71 520.93 278.71 515.97 274.41 518.45"/><polygon class="cls-4" points="232.19 522.71 239.57 518.45 232.19 514.19 232.19 522.71"/><polygon class="cls-5" points="207.71 518.45 216.16 523.33 216.16 513.57 207.71 518.45"/><polygon class="cls-6" points="166.25 526.2 179.67 518.45 166.25 510.7 166.25 526.2"/><polygon class="cls-8" points="134.7 481.54 156.77 494.28 156.77 468.8 134.7 481.54"/><polygon class="cls-8" points="130.52 477.35 155.22 463.08 130.52 448.83 130.52 477.35"/><polygon class="cls-11" points="100.3 426.17 126.02 441.02 126.02 411.33 100.3 426.17"/><polygon class="cls-8" points="132.15 400.71 151.97 389.26 132.15 377.82 132.15 400.71"/><polygon class="cls-8" points="139.47 370.81 154.38 379.42 154.38 362.19 139.47 370.81"/><polygon class="cls-6" points="169.06 336.77 174.04 333.9 169.06 331.03 169.06 336.77"/><polygon class="cls-12" points="211.89 333.9 214.07 335.16 214.07 332.64 211.89 333.9"/><polygon class="cls-7" points="298.37 371.17 299 370.81 298.37 370.45 298.37 371.17"/><polygon class="cls-10" points="305.92 463.08 310.9 465.96 310.9 460.21 305.92 463.08"/><polygon class="cls-10" points="296.98 484.32 301.79 481.54 296.98 478.76 296.98 484.32"/><polygon class="cls-7" points="265.75 538.4 268.34 536.91 265.75 535.41 265.75 538.4"/><polygon class="cls-4" points="242.9 536.91 246.51 538.99 246.51 534.82 242.9 536.91"/><polygon class="cls-5" points="200.78 540.21 206.5 536.91 200.78 533.61 200.78 540.21"/><polygon class="cls-6" points="175.95 536.91 184.09 541.61 184.09 532.21 175.95 536.91"/><polygon class="cls-8" points="137.78 518.45 155.22 528.52 155.22 508.38 137.78 518.45"/><polygon class="cls-8" points="131.45 512.65 153.37 500 131.45 487.34 131.45 512.65"/><polygon class="cls-11" points="100.11 463.08 126.11 478.09 126.11 448.08 100.11 463.08"/><polygon class="cls-11" points="98.02 459.81 124.32 444.63 98.02 429.45 98.02 459.81"/><polygon class="cls-11" points="98.42 422.22 123.53 407.72 98.42 393.22 98.42 422.22"/><polygon class="cls-11" points="103.35 389.26 124.49 401.47 124.49 377.06 103.35 389.26"/><polygon class="cls-8" points="135.18 358.54 145.9 352.35 135.18 346.16 135.18 358.54"/><polygon class="cls-8" points="145.51 333.9 151.36 337.27 151.36 330.52 145.51 333.9"/><polygon class="cls-8" points="179.73 315.44 182.2 316.87 182.2 314.01 179.73 315.44"/><polygon class="cls-12" points="202.15 316.38 203.77 315.44 202.15 314.51 202.15 316.38"/><polygon class="cls-10" points="307.97 500 309.88 501.1 309.88 498.9 307.97 500"/><polygon class="cls-10" points="298.01 519.45 299.74 518.45 298.01 517.45 298.01 519.45"/><polygon class="cls-4" points="234.24 556.07 235.47 555.36 234.24 554.66 234.24 556.07"/><polygon class="cls-12" points="211.96 555.36 214.03 556.56 214.03 554.16 211.96 555.36"/><polygon class="cls-6" points="168.46 559.28 175.25 555.36 168.46 551.44 168.46 559.28"/><polygon class="cls-8" points="142.31 555.36 152.96 561.52 152.96 549.21 142.31 555.36"/><polygon class="cls-8" points="133.34 546.3 149.6 536.91 133.34 527.52 133.34 546.3"/><polygon class="cls-11" points="100.81 500 125.77 514.4 125.77 485.59 100.81 500"/><polygon class="cls-11" points="98.08 496.62 124.2 481.54 98.08 466.46 98.08 496.62"/><polygon class="cls-13" points="67.87 444.63 94.29 459.88 94.29 429.37 67.87 444.63"/><polygon class="cls-13" points="65.93 441.59 92.62 426.17 65.93 410.76 65.93 441.59"/><polygon class="cls-13" points="68.34 407.72 94.05 422.56 94.05 392.87 68.34 407.72"/><polygon class="cls-11" points="100.81 381.16 118.75 370.81 100.81 360.45 100.81 381.16"/><polygon class="cls-11" points="109.28 352.35 121.53 359.42 121.53 345.28 109.28 352.35"/><polygon class="cls-8" points="137.26 318.04 141.75 315.44 137.26 312.85 137.26 318.04"/><polygon class="cls-8" points="146.92 296.99 150.66 299.15 150.66 294.83 146.92 296.99"/><polygon class="cls-6" points="170 298.25 172.18 296.99 170 295.73 170 298.25"/><polygon class="cls-12" points="212.98 296.99 213.52 297.3 213.52 296.68 212.98 296.99"/><polygon class="cls-5" points="202.45 574.23 203.16 573.82 202.45 573.41 202.45 574.23"/><polygon class="cls-8" points="179.5 573.82 182.31 575.44 182.31 572.19 179.5 573.82"/><polygon class="cls-8" points="135.76 579.01 144.75 573.82 135.76 568.62 135.76 579.01"/><polygon class="cls-11" points="103.63 536.91 124.35 548.87 124.35 524.94 103.63 536.91"/><polygon class="cls-11" points="98.36 533.06 123.66 518.45 98.36 503.85 98.36 533.06"/><polygon class="cls-13" points="67.66 481.54 94.39 496.97 94.39 466.11 67.66 481.54"/><polygon class="cls-13" points="65.89 478.57 92.7 463.08 65.89 447.6 65.89 478.57"/><polygon class="cls-14" points="35.44 426.17 62.55 441.82 62.55 410.52 35.44 426.17"/><polygon class="cls-13" points="66.99 402.84 90.5 389.26 66.99 375.69 66.99 402.84"/><polygon class="cls-13" points="72.49 370.81 91.98 382.06 91.98 359.56 72.49 370.81"/><polygon class="cls-11" points="103.95 338.81 112.46 333.9 103.95 328.99 103.95 338.81"/><polygon class="cls-11" points="113.62 315.44 119.36 318.75 119.36 312.13 113.62 315.44"/><polygon class="cls-6" points="170.01 593.5 172.14 592.27 170.01 591.04 170.01 593.5"/><polygon class="cls-8" points="146.48 592.27 150.88 594.82 150.88 589.73 146.48 592.27"/><polygon class="cls-11" points="109.33 573.82 121.5 580.85 121.5 566.79 109.33 573.82"/><polygon class="cls-11" points="100.5 566.25 119.36 555.36 100.5 544.48 100.5 566.25"/><polygon class="cls-13" points="67.27 518.45 94.58 534.22 94.58 502.68 67.27 518.45"/><polygon class="cls-13" points="65.59 515.98 93.28 500 65.59 484.01 65.59 515.98"/><polygon class="cls-14" points="35.72 463.08 62.41 478.5 62.41 447.67 35.72 463.08"/><polygon class="cls-14" points="33.9 460.15 60.78 444.63 33.9 429.11 33.9 460.15"/><polygon class="cls-14" points="33.77 423.46 61.03 407.72 33.77 391.98 33.77 423.46"/><polygon class="cls-14" points="37.07 389.26 61.73 403.5 61.73 375.03 37.07 389.26"/><polygon class="cls-13" points="69.36 361.82 85.76 352.35 69.36 342.88 69.36 361.82"/><polygon class="cls-13" points="78.39 333.9 89.03 340.03 89.03 327.76 78.39 333.9"/><polygon class="cls-11" points="104.49 300.98 111.4 296.99 104.49 293 104.49 300.98"/><polygon class="cls-8" points="137.82 612.34 140.62 610.73 137.82 609.12 137.82 612.34"/><polygon class="cls-11" points="114.7 610.73 118.82 613.1 118.82 608.36 114.7 610.73"/><polygon class="cls-11" points="103.89 597.3 112.6 592.27 103.89 587.25 103.89 597.3"/><polygon class="cls-13" points="71.37 555.36 92.53 567.58 92.53 543.14 71.37 555.36"/><polygon class="cls-13" points="66.2 551.84 92.07 536.91 66.2 521.97 66.2 551.84"/><polygon class="cls-14" points="35.3 500 62.62 515.77 62.62 484.22 35.3 500"/><polygon class="cls-14" points="34.06 496.78 60.46 481.54 34.06 466.3 34.06 496.78"/><polygon class="cls-9" points="3.4 444.63 30.62 460.35 30.62 428.91 3.4 444.63"/><polygon class="cls-9" points="2.92 407.72 30.86 423.85 30.86 391.58 2.92 407.72"/><polygon class="cls-14" points="35.38 383.76 57.82 370.81 35.38 357.85 35.38 383.76"/><polygon class="cls-14" points="41.53 352.35 59.51 362.73 59.51 341.98 41.53 352.35"/><polygon class="cls-13" points="71.89 320.53 80.7 315.44 71.89 310.35 71.89 320.53"/><polygon class="cls-13" points="80.21 296.99 88.11 301.55 88.11 292.42 80.21 296.99"/><polygon class="cls-11" points="106.29 630.05 107.79 629.19 106.29 628.32 106.29 630.05"/><polygon class="cls-13" points="79.15 592.27 88.65 597.75 88.65 586.79 79.15 592.27"/><polygon class="cls-13" points="69.54 582.97 85.39 573.82 69.54 564.66 69.54 582.97"/><polygon class="cls-14" points="36.42 536.91 62.06 551.72 62.06 522.1 36.42 536.91"/><polygon class="cls-14" points="33.88 534 60.81 518.45 33.88 502.91 33.88 534"/><polygon class="cls-9" points="4.42 481.54 30.11 496.37 30.11 466.71 4.42 481.54"/><polygon class="cls-9" points="6.19 370.81 29.23 384.11 29.23 357.51 6.19 370.81"/><polygon class="cls-14" points="38.34 341.73 51.9 333.9 38.34 326.07 38.34 341.73"/><polygon class="cls-14" points="47.2 315.44 56.68 320.91 56.68 309.97 47.2 315.44"/><polygon class="cls-13" points="84.6 629.19 85.92 629.95 85.92 628.42 84.6 629.19"/><polygon class="cls-13" points="73.25 613.46 77.97 610.73 73.25 608 73.25 613.46"/><polygon class="cls-14" points="42.79 573.82 58.87 583.1 58.87 564.53 42.79 573.82"/><polygon class="cls-14" points="35.72 567.72 57.13 555.36 35.72 543 35.72 567.72"/><polygon class="cls-9" points="4.8 518.45 29.92 532.96 29.92 503.95 4.8 518.45"/><polygon class="cls-9" points="2.63 514.32 27.43 500 2.63 485.67 2.63 514.32"/><polygon class="cls-9" points="2.08 363.27 20.99 352.35 2.08 341.43 2.08 363.27"/><polygon class="cls-9" points="12.43 333.9 26.11 341.79 26.11 326 12.43 333.9"/><polygon class="cls-14" points="40.63 300.86 47.33 296.99 40.63 293.12 40.63 300.86"/><polygon class="cls-14" points="50.51 610.73 55.02 613.33 55.02 608.13 50.51 610.73"/><polygon class="cls-14" points="39.73 597.7 49.12 592.27 39.73 586.85 39.73 597.7"/><polygon class="cls-9" points="8.71 555.36 27.97 566.48 27.97 544.25 8.71 555.36"/><polygon class="cls-9" points="2.08 549.33 23.6 536.91 2.08 524.48 2.08 549.33"/><polygon class="cls-9" points="8.06 320.35 16.56 315.44 8.06 310.54 8.06 320.35"/><polygon class="cls-9" points="18.09 296.99 23.28 299.99 23.28 293.99 18.09 296.99"/><polygon class="cls-14" points="42.66 629.53 43.25 629.18 42.66 628.84 42.66 629.53"/><polygon class="cls-9" points="16.09 592.27 24.28 597 24.28 587.54 16.09 592.27"/><polygon class="cls-9" points="6.63 581.2 19.41 573.82 6.63 566.44 6.63 581.2"/><polygon class="cls-9" points="9.83 612.56 13.01 610.73 9.83 608.89 9.83 612.56"/><path class="cls-15" d="M331.45,164.87a40.07,40.07,0,0,0-8.21-12.53,35.82,35.82,0,0,0-2.61-2.48,41.09,41.09,0,0,0-7.83-5.36l-.84-.44-.43-.22-.43-.2c-.29-.14-.58-.28-.87-.4q-.81-.37-1.65-.69l-1-.38h0l-.91-.32-.88-.29c-1.31-.41-2.65-.73-4-1l-.62-.11-.67-.12-.07,0-.47-.07-1.22-.17c-.34-.05-.69-.08-1-.12l-1.05-.09-.57,0c-.2,0-.39,0-.6,0l-.95,0h-.94l-.79,0h-.26l-1.11,0a41.95,41.95,0,0,0-17.26,4.7c-1.25.65-2.43,1.35-3.58,2.1-.44.29-.86.59-1.28.89l-1,.74-.25.2c-.12.09-.24.18-.35.28s-.32.25-.48.39l-.08.07c-.19.16-.37.31-.55.48h0l-.67.6-.06.05-.15.14-.21.19a.76.76,0,0,1-.09.09l0,0,0,0-.08.07v0s0,0,0,0l0,0c-.14.13-.28.26-.42.41l-.14.13-.09.09-.91.92a.15.15,0,0,1,0,.06l-.17.18-.74.81a2.62,2.62,0,0,0-.22.25l-.16.17h0l-.12.14s-.06.06-.07.09a.46.46,0,0,0-.07.07h0l-.06.08h0l-.08.08a5.5,5.5,0,0,0-.45.53c-.28.33-.54.67-.8,1s-.51.68-.76,1-.46.64-.67,1l-.16.23c-.2.3-.4.62-.59.92s-.41.69-.61,1c-.05.1-.11.19-.17.29s-.24.43-.35.65-.11.21-.17.32c-.19.36-.38.71-.55,1.07s-.28.56-.42.85h0c0,.11-.1.21-.13.31-.19.39-.37.8-.54,1.21a38.85,38.85,0,0,0-1.76,5.13,2.18,2.18,0,0,0-.11.44c0,.15-.08.3-.11.44a5.07,5.07,0,0,0-.13.56l-.12.59c-.09.42-.17.85-.24,1.27a41.53,41.53,0,0,0-.59,5.59,44.78,44.78,0,0,0,.46,7.21,35.92,35.92,0,0,0,5,14.32c1.54,2.55,3.3,5,5,7.49l8.5,12.87.38-.88.09-.17,9.25-21.33.16-.38c-6.26-6.53-11.8-10-11.8-20,0-.6,0-1.18,0-1.77a.22.22,0,0,1,0-.08,23.79,23.79,0,0,1,19-21.37,23.34,23.34,0,0,1,4.9-.51,23.67,23.67,0,0,1,13.16,43.57l8.63,21.72.05.13.42,1,.87-1.3c.05-.09.12-.18.18-.27l.18-.29.37-.56,2-3.08c.65-1,1.29-2,2-3,1.29-2,2.57-4,3.88-5.95.66-1,1.31-2,2-3,.28-.41.56-.83.83-1.26s.53-.84.8-1.28a.47.47,0,0,1,.07-.12v0l.05-.08.39-.68.1-.17,0-.09s.06-.09.09-.15l.7-1.32c.19-.36.36-.72.53-1.07.35-.74.67-1.47,1-2.22.17-.44.33-.87.49-1.3s.3-.87.44-1.31.27-.89.4-1.33.23-.89.34-1.34a35.94,35.94,0,0,0,.69-3.61l.12-.86c0-.13,0-.26,0-.39l0-.26c0-.42.08-.85.11-1.26v0q0-.65.06-1.29a1.2,1.2,0,0,0,0-.27c0-.17,0-.33,0-.5s0-.5,0-.76v-.31A38.46,38.46,0,0,0,331.45,164.87Z" transform="translate(-100.88 -79.4)"/><path class="cls-15" d="M334.47,180.09a38.79,38.79,0,0,1-2.77,14.81,43.84,43.84,0,0,1-4.57,8.47c-2.63,3.94-5.18,7.93-7.78,11.88l-2,3.09c-.25.37-.49.75-.75,1.11s-.57.87-.86,1.3l-.42-1-.23-.6a39.87,39.87,0,0,0,11.75-28.29c0-22.22-18.23-40.25-40.73-40.25a41,41,0,0,0-30,13.06,38.93,38.93,0,0,1,5.38-8.68,42.67,42.67,0,0,1,9.18-8.37c1.15-.75,2.34-1.45,3.58-2.1a41.59,41.59,0,0,1,9.75-3.63,42.08,42.08,0,0,1,7.51-1.07,41.05,41.05,0,0,1,9.73.66l.61.11a38.37,38.37,0,0,1,4,1,42.22,42.22,0,0,1,14.83,8.3,35.82,35.82,0,0,1,2.61,2.48,40.07,40.07,0,0,1,8.21,12.53A38.25,38.25,0,0,1,334.47,180.09Z" transform="translate(-100.88 -79.4)"/><polygon class="cls-15" points="209.31 148.07 192.85 173.99 175.62 148.07 192.46 158.17 209.31 148.07"/><path class="cls-15" d="M301.08,165.1c-.3-.18-.6-.34-.9-.5h0c-.32-.17-.66-.32-1-.46a16.39,16.39,0,0,0-2.08-.7H297a4.06,4.06,0,0,0-.69-.16,15.36,15.36,0,0,0-6.14,0,4.3,4.3,0,0,0-.69.16h-.08a17.09,17.09,0,0,0-2.09.7c-.34.14-.67.29-1,.46h0c-.3.16-.6.32-.89.5a15.12,15.12,0,0,0-7.55,13.07,15.4,15.4,0,0,0,30.8,0A15.11,15.11,0,0,0,301.08,165.1ZM292,166.41V177.3H281.37C282.5,166.8,292,166.41,292,166.41ZM292,190a11.47,11.47,0,0,1-10.63-10.74H292Zm2.12-23.68a11.78,11.78,0,0,1,10.94,11H294.13Zm0,23.81V179.21h10.95C303.91,189.68,294.13,190.08,294.13,190.08Z" transform="translate(-100.88 -79.4)"/><text class="cls-16" transform="translate(112.54 215.06) scale(0.88 1)">HomeZone</text></svg>